<?xml version="1.0" standalone="no"?>
<!DOCTYPE svg PUBLIC "-//W3C//DTD SVG 20010904//EN"
 "http://www.w3.org/TR/2001/REC-SVG-20010904/DTD/svg10.dtd">
<svg version="1.0" xmlns="http://www.w3.org/2000/svg"
 width="1000.000000pt" height="600.000000pt" viewBox="0 0 1000.000000 600.000000"
 preserveAspectRatio="xMidYMid meet">

<g transform="translate(0.000000,600.000000) scale(0.100000,-0.100000)"
fill="#000000" stroke="none">
<path d="M1279 4001 l-24 -19 0 -982 0 -982 24 -19 c22 -18 53 -19 996 -19
943 0 974 1 996 19 l24 19 0 982 0 982 -24 19 c-22 18 -53 19 -996 19 -943 0
-974 -1 -996 -19z m1311 -581 l0 -40 -265 0 -265 0 0 -180 0 -180 235 0 235 0
0 -45 0 -45 -235 0 -235 0 0 -195 0 -195 -50 0 -50 0 0 460 0 460 315 0 315 0
0 -40z"/>
<path d="M3987 3446 c-123 -34 -185 -145 -139 -249 26 -58 73 -86 217 -127 61
-18 122 -38 137 -46 86 -44 91 -146 9 -197 -31 -19 -50 -22 -132 -22 -91 0
-100 2 -168 37 -69 35 -72 36 -82 16 -15 -28 -6 -44 43 -69 128 -66 305 -65
398 1 62 44 88 144 55 213 -25 51 -82 84 -206 118 -63 17 -133 42 -156 55 -84
48 -78 152 12 198 61 32 181 29 256 -6 l57 -26 11 25 c15 33 10 38 -57 63 -72
27 -190 35 -255 16z"/>
<path d="M8095 3446 c-60 -15 -103 -37 -129 -65 -20 -21 -20 -22 1 -43 l21
-21 34 26 c48 37 84 48 159 48 116 1 169 -41 169 -132 0 -75 -31 -118 -216
-298 -135 -132 -174 -176 -174 -195 l0 -26 250 0 250 0 0 35 0 35 -196 0 -196
0 155 153 c160 157 182 186 196 262 31 168 -120 271 -324 221z"/>
<path d="M8510 3420 l0 -30 85 0 85 0 0 -325 0 -325 35 0 35 0 0 355 0 355
-120 0 -120 0 0 -30z"/>
<path d="M4390 3273 c0 -4 52 -123 115 -264 63 -141 115 -263 115 -271 0 -30
-60 -115 -90 -128 -36 -15 -95 -8 -120 15 -16 14 -19 13 -35 -11 -17 -26 -17
-28 1 -41 23 -17 80 -33 117 -33 39 0 88 23 119 57 21 21 247 503 315 671 4 8
-6 12 -29 12 l-34 0 -99 -225 c-54 -124 -101 -225 -105 -225 -3 0 -51 101
-106 225 l-99 225 -32 0 c-18 0 -33 -3 -33 -7z"/>
<path d="M5040 3009 l0 -270 33 3 32 3 5 180 c5 192 9 205 60 248 84 71 200
59 264 -27 19 -25 21 -44 24 -217 l4 -190 31 3 32 3 0 185 c0 211 -7 241 -65
294 -85 77 -223 75 -315 -6 l-45 -40 0 51 c0 50 -1 51 -30 51 l-30 0 0 -271z"/>
<path d="M5845 3264 c-164 -58 -222 -283 -111 -429 63 -82 215 -118 327 -76
31 12 66 32 78 44 21 23 21 24 3 41 -18 16 -22 15 -77 -14 -74 -39 -140 -41
-211 -5 -55 27 -104 91 -104 137 l0 28 221 0 222 0 -6 60 c-15 167 -181 271
-342 214z m162 -55 c54 -20 102 -78 117 -141 l6 -28 -190 0 c-184 0 -190 1
-190 20 0 53 42 110 105 143 35 19 111 22 152 6z"/>
<path d="M6345 3267 c-3 -7 -4 -127 -3 -267 l3 -255 31 -3 32 -3 4 173 c4 155
6 177 26 216 54 103 212 123 279 35 l28 -36 3 -194 4 -193 34 0 34 0 0 163 c1
214 16 257 105 298 52 24 99 24 150 -1 72 -35 80 -58 83 -273 l4 -188 31 3 32
3 0 190 c0 178 -2 193 -24 238 -34 71 -93 102 -191 102 -86 0 -139 -22 -185
-77 -21 -25 -29 -29 -33 -18 -10 30 -71 77 -116 90 -86 24 -181 -1 -238 -63
l-28 -29 0 51 c0 50 -1 51 -30 51 -17 0 -33 -6 -35 -13z"/>
<path d="M7497 3260 c-53 -17 -97 -44 -97 -59 0 -3 7 -14 14 -24 13 -16 16
-16 61 9 64 36 165 44 215 16 41 -22 70 -73 70 -124 l0 -36 -132 -4 c-191 -4
-241 -35 -242 -145 -1 -89 57 -142 168 -150 75 -6 125 8 172 49 l34 30 0 -41
c0 -40 1 -41 36 -41 l36 0 -4 203 c-4 222 -8 240 -68 290 -59 50 -160 60 -263
27z m263 -312 c0 -79 -58 -139 -145 -153 -89 -13 -165 32 -165 97 0 77 39 97
193 98 l117 0 0 -42z"/>
</g>
</svg>
